# Blender 3.4.1
# www.blender.org
mtllib comb.mtl
o Cube
v 1.000000 -0.145612 4.629638
v 1.000000 -0.114548 -4.630511
v 1.000000 0.114548 4.630511
v 1.000000 0.145612 -4.629638
v -1.000000 -0.145612 4.629638
v -1.000000 -0.114548 -4.630511
v -1.000000 0.114548 4.630511
v -1.000000 0.145612 -4.629638
v 0.094082 0.120159 2.957765
v 0.094082 0.119091 3.276137
v 1.000000 0.120159 2.957765
v 1.000000 0.119091 3.276137
v 1.000000 -0.140001 2.956892
v 1.000000 -0.141069 3.275264
v 0.094082 -0.140001 2.956892
v 0.094082 -0.141069 3.275264
v 0.094082 0.133892 -1.135848
v 0.094082 0.132824 -0.817476
v 1.000000 0.133892 -1.135848
v 1.000000 0.132824 -0.817476
v 1.000000 -0.126268 -1.136721
v 1.000000 -0.127336 -0.818349
v 0.094082 -0.126268 -1.136721
v 0.094082 -0.127336 -0.818349
v 0.094082 0.123544 1.948775
v 0.094082 0.122476 2.267147
v 1.000000 0.123544 1.948775
v 1.000000 0.122476 2.267147
v 1.000000 -0.136616 1.947902
v 1.000000 -0.137684 2.266274
v 0.094082 -0.136616 1.947902
v 0.094082 -0.137684 2.266274
v 0.094082 0.130727 -0.192383
v 0.094082 0.129659 0.125988
v 1.000000 0.130727 -0.192383
v 1.000000 0.129659 0.125988
v 1.000000 -0.129433 -0.193256
v 1.000000 -0.130501 0.125116
v 0.094082 -0.129433 -0.193256
v 0.094082 -0.130501 0.125116
v 0.094082 0.137176 -2.114879
v 0.094082 0.136108 -1.796507
v 1.000000 0.137176 -2.114879
v 1.000000 0.136108 -1.796507
v 1.000000 -0.122984 -2.115751
v 1.000000 -0.124052 -1.797380
v 0.094082 -0.122984 -2.115751
v 0.094082 -0.124052 -1.797380
v 0.094082 0.140427 -3.083829
v 0.094082 0.139359 -2.765457
v 1.000000 0.140427 -3.083829
v 1.000000 0.139359 -2.765457
v 1.000000 -0.119734 -3.084702
v 1.000000 -0.120802 -2.766330
v 0.094082 -0.119734 -3.084702
v 0.094082 -0.120802 -2.766330
v 0.094082 0.127247 0.845091
v 0.094082 0.126179 1.163463
v 1.000000 0.127247 0.845091
v 1.000000 0.126179 1.163463
v 1.000000 -0.132914 0.844218
v 1.000000 -0.133982 1.162590
v 0.094082 -0.132914 0.844218
v 0.094082 -0.133982 1.162590
vn -0.0000 -0.0034 1.0000
vn -0.0000 1.0000 0.0034
vn -1.0000 -0.0000 -0.0000
vn -0.0000 0.0034 -1.0000
vn 1.0000 -0.0000 -0.0000
vn -0.0000 -1.0000 -0.0034
vt 0.625000 0.500000
vt 0.375000 0.500000
vt 0.625000 0.750000
vt 0.375000 0.750000
vt 0.875000 0.500000
vt 0.625000 0.250000
vt 0.125000 0.500000
vt 0.375000 0.250000
vt 0.875000 0.750000
vt 0.625000 1.000000
vt 0.625000 0.000000
vt 0.375000 0.000000
vt 0.375000 1.000000
vt 0.125000 0.750000
vt 0.579840 0.863240
vt 0.625000 0.141260
vt 0.875000 0.608740
vt 0.375000 0.141260
vt 0.125000 0.608740
vt 0.588435 0.863240
vt 0.579840 0.750000
vt 0.761760 0.608740
vt 0.588435 0.750000
vt 0.238240 0.608740
vt 0.579840 0.500000
vt 0.761760 0.641260
vt 0.588435 0.500000
vt 0.238240 0.641260
vt 0.875000 0.641260
vt 0.579840 0.386760
vt 0.625000 0.108740
vt 0.588435 0.386760
vt 0.375000 0.108740
vt 0.125000 0.641260
vt 0.469323 0.863240
vt 0.625000 0.141260
vt 0.875000 0.608740
vt 0.375000 0.141260
vt 0.125000 0.608740
vt 0.477919 0.863240
vt 0.469323 0.750000
vt 0.761760 0.608740
vt 0.477919 0.750000
vt 0.238240 0.608740
vt 0.469323 0.500000
vt 0.761760 0.641260
vt 0.477919 0.500000
vt 0.238240 0.641260
vt 0.875000 0.641260
vt 0.469323 0.386760
vt 0.625000 0.108740
vt 0.477918 0.386760
vt 0.375000 0.108740
vt 0.125000 0.641260
vt 0.552600 0.863240
vt 0.625000 0.141260
vt 0.875000 0.608740
vt 0.375000 0.141260
vt 0.125000 0.608740
vt 0.561195 0.863240
vt 0.552600 0.750000
vt 0.761760 0.608740
vt 0.561195 0.750000
vt 0.238240 0.608740
vt 0.552600 0.500000
vt 0.761760 0.641260
vt 0.561195 0.500000
vt 0.238240 0.641260
vt 0.875000 0.641260
vt 0.552600 0.386760
vt 0.625000 0.108740
vt 0.561195 0.386760
vt 0.375000 0.108740
vt 0.125000 0.641260
vt 0.494794 0.863239
vt 0.625000 0.141260
vt 0.875000 0.608740
vt 0.375000 0.141260
vt 0.125000 0.608740
vt 0.503390 0.863240
vt 0.494794 0.750000
vt 0.761760 0.608740
vt 0.503390 0.750000
vt 0.238240 0.608740
vt 0.494794 0.500000
vt 0.761760 0.641260
vt 0.503390 0.500000
vt 0.238240 0.641260
vt 0.875000 0.641260
vt 0.494794 0.386760
vt 0.625000 0.108740
vt 0.503390 0.386760
vt 0.375000 0.108740
vt 0.125000 0.641260
vt 0.442892 0.863239
vt 0.625000 0.141260
vt 0.875000 0.608740
vt 0.375000 0.141260
vt 0.125000 0.608740
vt 0.451487 0.863240
vt 0.442892 0.750000
vt 0.761760 0.608740
vt 0.451487 0.750000
vt 0.238240 0.608740
vt 0.442892 0.500000
vt 0.761760 0.641260
vt 0.451487 0.500000
vt 0.238240 0.641260
vt 0.875000 0.641260
vt 0.442892 0.386760
vt 0.625000 0.108740
vt 0.451487 0.386760
vt 0.375000 0.108740
vt 0.125000 0.641260
vt 0.416733 0.863240
vt 0.625000 0.141260
vt 0.875000 0.608740
vt 0.375000 0.141260
vt 0.125000 0.608740
vt 0.425328 0.863239
vt 0.416733 0.750000
vt 0.761760 0.608740
vt 0.425328 0.750000
vt 0.238240 0.608740
vt 0.416733 0.500000
vt 0.761760 0.641260
vt 0.425328 0.500000
vt 0.238240 0.641260
vt 0.875000 0.641260
vt 0.416733 0.386760
vt 0.625000 0.108740
vt 0.425328 0.386760
vt 0.375000 0.108740
vt 0.125000 0.641260
vt 0.522803 0.863240
vt 0.625000 0.141260
vt 0.875000 0.608740
vt 0.375000 0.141260
vt 0.125000 0.608740
vt 0.531399 0.863240
vt 0.522804 0.750000
vt 0.761760 0.608740
vt 0.531399 0.750000
vt 0.238240 0.608740
vt 0.522804 0.500000
vt 0.761760 0.641260
vt 0.531399 0.500000
vt 0.238240 0.641260
vt 0.875000 0.641260
vt 0.522804 0.386760
vt 0.625000 0.108740
vt 0.531399 0.386760
vt 0.375000 0.108740
vt 0.125000 0.641260
s 0
usemtl Material
f 5/5/1 1/1/1 3/3/1
f 57/135/2 7/10/2 58/140/2
f 7/11/3 8/12/3 6/8/3
f 2/2/4 6/7/4 8/14/4
f 1/1/5 14/27/5 12/23/5
f 4/4/5 51/121/5 53/125/5
f 45/105/5 54/127/5 52/123/5
f 21/45/5 46/107/5 44/103/5
f 13/25/5 30/67/5 28/63/5
f 20/43/5 35/81/5 37/85/5
f 29/65/5 62/147/5 60/143/5
f 36/83/5 59/141/5 61/145/5
f 5/6/6 64/152/6 31/70/6
f 9/16/5 10/18/5 16/33/5
f 16/34/4 10/19/4 12/24/4
f 9/17/1 15/29/1 13/26/1
f 17/36/5 18/38/5 24/53/5
f 24/54/4 18/39/4 20/44/4
f 17/37/1 23/49/1 21/46/1
f 25/56/5 26/58/5 32/73/5
f 32/74/4 26/59/4 28/64/4
f 25/57/1 31/69/1 29/66/1
f 33/76/5 34/78/5 40/93/5
f 40/94/4 34/79/4 36/84/4
f 33/77/1 39/89/1 37/86/1
f 41/96/5 42/98/5 48/113/5
f 48/114/4 42/99/4 44/104/4
f 41/97/1 47/109/1 45/106/1
f 49/116/5 50/118/5 56/133/5
f 56/134/4 50/119/4 52/124/4
f 49/117/1 55/129/1 53/126/1
f 57/136/5 58/138/5 64/153/5
f 64/154/4 58/139/4 60/144/4
f 57/137/1 63/149/1 61/146/1
f 5/5/1 3/3/1 7/9/1
f 50/120/2 43/101/2 52/123/2
f 50/120/2 41/95/2 43/101/2
f 4/4/2 49/115/2 51/121/2
f 50/120/2 8/13/2 41/95/2
f 41/95/2 8/13/2 42/100/2
f 8/13/2 17/35/2 42/100/2
f 8/13/2 49/115/2 4/4/2
f 49/115/2 8/13/2 50/120/2
f 7/10/2 34/80/2 8/13/2
f 12/23/2 10/20/2 3/3/2
f 3/3/2 10/20/2 7/10/2
f 42/100/2 19/41/2 44/103/2
f 42/100/2 17/35/2 19/41/2
f 9/15/2 7/10/2 10/20/2
f 28/63/2 9/15/2 11/21/2
f 26/60/2 9/15/2 28/63/2
f 8/13/2 18/40/2 17/35/2
f 18/40/2 35/81/2 20/43/2
f 8/13/2 33/75/2 18/40/2
f 26/60/2 7/10/2 9/15/2
f 60/143/2 25/55/2 27/61/2
f 25/55/2 7/10/2 26/60/2
f 18/40/2 33/75/2 35/81/2
f 34/80/2 59/141/2 36/83/2
f 8/13/2 34/80/2 33/75/2
f 34/80/2 57/135/2 59/141/2
f 58/140/2 25/55/2 60/143/2
f 7/10/2 57/135/2 34/80/2
f 58/140/2 7/10/2 25/55/2
f 7/11/3 6/8/3 5/6/3
f 2/2/4 8/14/4 4/4/4
f 1/1/5 12/23/5 3/3/5
f 4/4/5 53/125/5 2/2/5
f 45/105/5 52/123/5 43/101/5
f 21/45/5 44/103/5 19/41/5
f 13/25/5 28/63/5 11/21/5
f 20/43/5 37/85/5 22/47/5
f 29/65/5 60/143/5 27/61/5
f 36/83/5 61/145/5 38/87/5
f 37/85/6 24/52/6 22/47/6
f 23/50/6 46/107/6 21/45/6
f 39/90/6 24/52/6 37/85/6
f 23/50/6 48/112/6 46/107/6
f 40/92/6 6/8/6 39/90/6
f 39/90/6 6/8/6 24/52/6
f 40/92/6 5/6/6 6/8/6
f 23/50/6 6/8/6 48/112/6
f 48/112/6 6/8/6 47/110/6
f 23/50/6 24/52/6 6/8/6
f 47/110/6 54/127/6 45/105/6
f 47/110/6 56/132/6 54/127/6
f 55/130/6 2/2/6 53/125/6
f 47/110/6 6/8/6 56/132/6
f 55/130/6 6/8/6 2/2/6
f 56/132/6 6/8/6 55/130/6
f 5/6/6 16/32/6 1/1/6
f 1/1/6 16/32/6 14/27/6
f 61/145/6 40/92/6 38/87/6
f 63/150/6 40/92/6 61/145/6
f 5/6/6 15/30/6 16/32/6
f 15/30/6 30/67/6 13/25/6
f 15/30/6 32/72/6 30/67/6
f 63/150/6 5/6/6 40/92/6
f 29/65/6 64/152/6 62/147/6
f 64/152/6 5/6/6 63/150/6
f 5/6/6 32/72/6 15/30/6
f 31/70/6 64/152/6 29/65/6
f 5/6/6 31/70/6 32/72/6
f 9/16/5 16/33/5 15/31/5
f 16/34/4 12/24/4 14/28/4
f 9/17/1 13/26/1 11/22/1
f 17/36/5 24/53/5 23/51/5
f 24/54/4 20/44/4 22/48/4
f 17/37/1 21/46/1 19/42/1
f 25/56/5 32/73/5 31/71/5
f 32/74/4 28/64/4 30/68/4
f 25/57/1 29/66/1 27/62/1
f 33/76/5 40/93/5 39/91/5
f 40/94/4 36/84/4 38/88/4
f 33/77/1 37/86/1 35/82/1
f 41/96/5 48/113/5 47/111/5
f 48/114/4 44/104/4 46/108/4
f 41/97/1 45/106/1 43/102/1
f 49/116/5 56/133/5 55/131/5
f 56/134/4 52/124/4 54/128/4
f 49/117/1 53/126/1 51/122/1
f 57/136/5 64/153/5 63/151/5
f 64/154/4 60/144/4 62/148/4
f 57/137/1 61/146/1 59/142/1
